<svg width="147" height="232" viewBox="0 0 147 232" fill="none" xmlns="http://www.w3.org/2000/svg">
<rect x="3" y="188" width="44" height="44" rx="10" fill="#D9D9D9" fill-opacity="0.5"/>
<rect x="53" y="188" width="45" height="44" rx="10" fill="#D9D9D9" fill-opacity="0.5"/>
<rect x="103" y="188" width="44" height="44" rx="10" fill="#D9D9D9" fill-opacity="0.5"/>
<rect x="53" y="137" width="45" height="45" rx="10" fill="#D9D9D9" fill-opacity="0.5"/>
<rect y="51" width="44" height="44" rx="10" fill="#D9D9D9" fill-opacity="0.5"/>
<rect x="50" y="51" width="45" height="44" rx="10" fill="#D9D9D9" fill-opacity="0.5"/>
<rect x="100" y="51" width="44" height="44" rx="10" fill="#D9D9D9" fill-opacity="0.5"/>
<rect x="50" width="45" height="45" rx="10" fill="#D9D9D9" fill-opacity="0.5"/>
<path d="M82.2959 16.04L78.3959 30H75.0959L72.4759 20.06L69.7359 30L66.4559 30.02L62.6959 16.04H65.6959L68.1559 26.88L70.9959 16.04H74.1159L76.7959 26.82L79.2759 16.04H82.2959Z" fill="black" fill-opacity="0.5"/>
<path d="M72.6063 80.14C71.6329 80.14 70.7529 79.9733 69.9663 79.64C69.1929 79.3067 68.5796 78.8267 68.1263 78.2C67.6729 77.5733 67.4396 76.8333 67.4263 75.98H70.4263C70.4663 76.5533 70.6663 77.0067 71.0263 77.34C71.3996 77.6733 71.9063 77.84 72.5463 77.84C73.1996 77.84 73.7129 77.6867 74.0863 77.38C74.4596 77.06 74.6463 76.6467 74.6463 76.14C74.6463 75.7267 74.5196 75.3867 74.2663 75.12C74.0129 74.8533 73.6929 74.6467 73.3063 74.5C72.9329 74.34 72.4129 74.1667 71.7463 73.98C70.8396 73.7133 70.0996 73.4533 69.5263 73.2C68.9663 72.9333 68.4796 72.54 68.0663 72.02C67.6663 71.4867 67.4663 70.78 67.4663 69.9C67.4663 69.0733 67.6729 68.3533 68.0863 67.74C68.4996 67.1267 69.0796 66.66 69.8263 66.34C70.5729 66.0067 71.4263 65.84 72.3863 65.84C73.8263 65.84 74.9929 66.1933 75.8863 66.9C76.7929 67.5933 77.2929 68.5667 77.3863 69.82H74.3063C74.2796 69.34 74.0729 68.9467 73.6863 68.64C73.3129 68.32 72.8129 68.16 72.1863 68.16C71.6396 68.16 71.1996 68.3 70.8663 68.58C70.5463 68.86 70.3863 69.2667 70.3863 69.8C70.3863 70.1733 70.5063 70.4867 70.7463 70.74C70.9996 70.98 71.3063 71.18 71.6663 71.34C72.0396 71.4867 72.5596 71.66 73.2263 71.86C74.1329 72.1267 74.8729 72.3933 75.4463 72.66C76.0196 72.9267 76.5129 73.3267 76.9263 73.86C77.3396 74.3933 77.5463 75.0933 77.5463 75.96C77.5463 76.7067 77.3529 77.4 76.9662 78.04C76.5796 78.68 76.0129 79.1933 75.2663 79.58C74.5196 79.9533 73.6329 80.14 72.6063 80.14Z" fill="black" fill-opacity="0.5"/>
<path d="M120.592 66.04C122.059 66.04 123.345 66.3267 124.452 66.9C125.572 67.4733 126.432 68.2933 127.032 69.36C127.645 70.4133 127.952 71.64 127.952 73.04C127.952 74.44 127.645 75.6667 127.032 76.72C126.432 77.76 125.572 78.5667 124.452 79.14C123.345 79.7133 122.059 80 120.592 80H115.712V66.04H120.592ZM120.492 77.62C121.959 77.62 123.092 77.22 123.892 76.42C124.692 75.62 125.092 74.4933 125.092 73.04C125.092 71.5867 124.692 70.4533 123.892 69.64C123.092 68.8133 121.959 68.4 120.492 68.4H118.512V77.62H120.492Z" fill="black" fill-opacity="0.5"/>
<path d="M24.2818 77.34H18.7218L17.8018 80H14.8618L19.8818 66.02H23.1418L28.1618 80H25.2018L24.2818 77.34ZM23.5218 75.1L21.5018 69.26L19.4818 75.1H23.5218Z" fill="black" fill-opacity="0.5"/>
<path d="M76 150L84.6603 165H67.3397L76 150Z" fill="black" fill-opacity="0.5"/>
<path d="M135 210L120 218.66V201.34L135 210Z" fill="black" fill-opacity="0.5"/>
<path d="M76 220L67.3397 205H84.6603L76 220Z" fill="black" fill-opacity="0.5"/>
<path d="M15 210L30 201.34V218.66L15 210Z" fill="black" fill-opacity="0.5"/>
</svg>
